<svg xmlns="http://www.w3.org/2000/svg" width="184" height="38" viewBox="0 0 184 38">
  <g id="Grupo_19" data-name="Grupo 19" transform="translate(-1074 -94)">
    <g id="Grupo_18" data-name="Grupo 18" transform="translate(1048 -633)">
      <rect id="Rectángulo_3" data-name="Rectángulo 3" width="184" height="38" rx="4" transform="translate(26 727)" fill="#fff"/>
    </g>
    <path id="Icon_ionic-ios-arrow-back" data-name="Icon ionic-ios-arrow-back" d="M13.828,13.67l5.659-5.655a1.069,1.069,0,0,0-1.514-1.509l-6.412,6.407a1.067,1.067,0,0,0-.031,1.474l6.439,6.452a1.069,1.069,0,0,0,1.514-1.509Z" transform="translate(1082.619 98.806)" fill="#696969"/>
    <path id="Trazado_20" data-name="Trazado 20" d="M-.07-10H1.75l2.506,7.91h.028L6.846-10H8.624L5.208,0H3.262ZM11.942.2A3.942,3.942,0,0,1,10.4-.091,3.3,3.3,0,0,1,9.247-.882a3.383,3.383,0,0,1-.714-1.2,4.635,4.635,0,0,1-.245-1.54,4.59,4.59,0,0,1,.245-1.526,3.383,3.383,0,0,1,.714-1.2A3.3,3.3,0,0,1,10.4-7.147a3.942,3.942,0,0,1,1.547-.287,3.942,3.942,0,0,1,1.547.287,3.3,3.3,0,0,1,1.148.791,3.383,3.383,0,0,1,.714,1.2A4.59,4.59,0,0,1,15.6-3.626a4.634,4.634,0,0,1-.245,1.54,3.383,3.383,0,0,1-.714,1.2,3.3,3.3,0,0,1-1.148.791A3.942,3.942,0,0,1,11.942.2Zm0-1.26a1.831,1.831,0,0,0,.924-.224,1.947,1.947,0,0,0,.644-.588,2.566,2.566,0,0,0,.371-.819A3.664,3.664,0,0,0,14-3.626a3.691,3.691,0,0,0-.119-.924,2.477,2.477,0,0,0-.371-.819,1.978,1.978,0,0,0-.644-.581,1.831,1.831,0,0,0-.924-.224,1.831,1.831,0,0,0-.924.224,1.978,1.978,0,0,0-.644.581A2.477,2.477,0,0,0,10-4.55a3.691,3.691,0,0,0-.119.924A3.664,3.664,0,0,0,10-2.695a2.566,2.566,0,0,0,.371.819,1.947,1.947,0,0,0,.644.588A1.831,1.831,0,0,0,11.942-1.064ZM16.968-10h1.6V0h-1.6Zm2.618,2.758h1.736L23.156-1.68h.028l1.764-5.558H26.6L24.01,0H22.218Zm12.95,2.982a2.574,2.574,0,0,0-.161-.728,1.94,1.94,0,0,0-.364-.609,1.8,1.8,0,0,0-.56-.42,1.65,1.65,0,0,0-.735-.161,1.918,1.918,0,0,0-.763.147,1.745,1.745,0,0,0-.588.406,2.008,2.008,0,0,0-.392.609,2.125,2.125,0,0,0-.161.756Zm-3.724,1.05a2.78,2.78,0,0,0,.119.812,2,2,0,0,0,.357.686,1.721,1.721,0,0,0,.6.469,1.986,1.986,0,0,0,.868.175,1.917,1.917,0,0,0,1.127-.3,1.779,1.779,0,0,0,.637-.9h1.512a3.009,3.009,0,0,1-.434,1.05,3.02,3.02,0,0,1-.742.777,3.2,3.2,0,0,1-.973.476A3.917,3.917,0,0,1,30.758.2a3.832,3.832,0,0,1-1.512-.28,3.126,3.126,0,0,1-1.113-.784,3.327,3.327,0,0,1-.686-1.2,4.891,4.891,0,0,1-.231-1.54,4.357,4.357,0,0,1,.245-1.463,3.745,3.745,0,0,1,.7-1.218,3.348,3.348,0,0,1,1.1-.833,3.333,3.333,0,0,1,1.456-.308,3.244,3.244,0,0,1,1.533.357,3.364,3.364,0,0,1,1.127.945,3.826,3.826,0,0,1,.651,1.351,4.141,4.141,0,0,1,.1,1.575ZM35.35-7.238h1.5v1.4h.028a1.615,1.615,0,0,1,.273-.574,2.662,2.662,0,0,1,.49-.511,2.476,2.476,0,0,1,.637-.371,1.907,1.907,0,0,1,.714-.14,3.463,3.463,0,0,1,.385.014l.217.028v1.54q-.168-.028-.343-.049a2.878,2.878,0,0,0-.343-.021,1.834,1.834,0,0,0-.763.161,1.752,1.752,0,0,0-.623.476,2.333,2.333,0,0,0-.42.777,3.363,3.363,0,0,0-.154,1.064V0h-1.6ZM50.232-1.61a.847.847,0,0,0,.077.42.325.325,0,0,0,.3.126h.168A1.046,1.046,0,0,0,51-1.092V.014q-.084.028-.217.063T50.512.14q-.14.028-.28.042T49.994.2a1.539,1.539,0,0,1-.812-.2.976.976,0,0,1-.42-.686,2.823,2.823,0,0,1-1.169.672A4.6,4.6,0,0,1,46.256.2a3.279,3.279,0,0,1-.938-.133,2.462,2.462,0,0,1-.791-.392,1.879,1.879,0,0,1-.546-.658,2.027,2.027,0,0,1-.2-.931,2.15,2.15,0,0,1,.245-1.092,1.815,1.815,0,0,1,.644-.658,2.908,2.908,0,0,1,.9-.343q.5-.1,1-.161a8.19,8.19,0,0,1,.826-.119,3.876,3.876,0,0,0,.693-.119,1.061,1.061,0,0,0,.476-.259.713.713,0,0,0,.175-.525.818.818,0,0,0-.147-.5.987.987,0,0,0-.364-.3,1.572,1.572,0,0,0-.483-.14,3.871,3.871,0,0,0-.5-.035,2,2,0,0,0-1.106.28,1.092,1.092,0,0,0-.49.868h-1.6a2.4,2.4,0,0,1,.336-1.162,2.321,2.321,0,0,1,.749-.742,3.064,3.064,0,0,1,1.029-.392,6.127,6.127,0,0,1,1.176-.112,4.954,4.954,0,0,1,1.05.112,2.982,2.982,0,0,1,.931.364,2.016,2.016,0,0,1,.665.651,1.786,1.786,0,0,1,.252.973Zm-1.6-2.016a1.937,1.937,0,0,1-.9.287q-.532.049-1.064.147a3.412,3.412,0,0,0-.49.119,1.476,1.476,0,0,0-.42.21.922.922,0,0,0-.287.35,1.2,1.2,0,0,0-.105.525.67.67,0,0,0,.154.448,1.119,1.119,0,0,0,.371.287,1.718,1.718,0,0,0,.476.147,2.955,2.955,0,0,0,.469.042,2.6,2.6,0,0,0,.574-.07A1.909,1.909,0,0,0,48-1.372a1.53,1.53,0,0,0,.455-.427,1.08,1.08,0,0,0,.182-.637Zm7.252-3.612H57.4v.98h.028a1.974,1.974,0,0,1,.938-.9,3.115,3.115,0,0,1,1.3-.273,3.457,3.457,0,0,1,1.491.3,2.94,2.94,0,0,1,1.057.826,3.588,3.588,0,0,1,.63,1.225,5.188,5.188,0,0,1,.21,1.5,5.3,5.3,0,0,1-.189,1.414,3.678,3.678,0,0,1-.574,1.211,2.869,2.869,0,0,1-.973.84A2.894,2.894,0,0,1,59.934.2a3.944,3.944,0,0,1-.7-.063,3.022,3.022,0,0,1-.672-.2,2.65,2.65,0,0,1-.6-.357,1.979,1.979,0,0,1-.455-.511h-.028V2.674h-1.6ZM61.46-3.612a3.6,3.6,0,0,0-.126-.952,2.587,2.587,0,0,0-.378-.819,1.952,1.952,0,0,0-.63-.574,1.712,1.712,0,0,0-.868-.217,1.76,1.76,0,0,0-1.519.7,3.089,3.089,0,0,0-.511,1.862A3.708,3.708,0,0,0,57.561-2.6a2.284,2.284,0,0,0,.4.8,1.992,1.992,0,0,0,.637.532,1.817,1.817,0,0,0,.861.2,1.783,1.783,0,0,0,.924-.224,1.954,1.954,0,0,0,.623-.581,2.356,2.356,0,0,0,.35-.812A4.127,4.127,0,0,0,61.46-3.612ZM67.718.2a3.942,3.942,0,0,1-1.547-.287,3.3,3.3,0,0,1-1.148-.791,3.383,3.383,0,0,1-.714-1.2,4.635,4.635,0,0,1-.245-1.54,4.59,4.59,0,0,1,.245-1.526,3.383,3.383,0,0,1,.714-1.2,3.3,3.3,0,0,1,1.148-.791,3.942,3.942,0,0,1,1.547-.287,3.942,3.942,0,0,1,1.547.287,3.3,3.3,0,0,1,1.148.791,3.383,3.383,0,0,1,.714,1.2,4.59,4.59,0,0,1,.245,1.526,4.634,4.634,0,0,1-.245,1.54,3.383,3.383,0,0,1-.714,1.2,3.3,3.3,0,0,1-1.148.791A3.942,3.942,0,0,1,67.718.2Zm0-1.26a1.831,1.831,0,0,0,.924-.224,1.947,1.947,0,0,0,.644-.588,2.566,2.566,0,0,0,.371-.819,3.664,3.664,0,0,0,.119-.931,3.691,3.691,0,0,0-.119-.924,2.477,2.477,0,0,0-.371-.819,1.978,1.978,0,0,0-.644-.581,1.831,1.831,0,0,0-.924-.224,1.831,1.831,0,0,0-.924.224,1.978,1.978,0,0,0-.644.581,2.477,2.477,0,0,0-.371.819,3.692,3.692,0,0,0-.119.924,3.664,3.664,0,0,0,.119.931,2.566,2.566,0,0,0,.371.819,1.947,1.947,0,0,0,.644.588A1.831,1.831,0,0,0,67.718-1.064ZM72.7-7.238h1.5v1.4h.028a1.615,1.615,0,0,1,.273-.574,2.662,2.662,0,0,1,.49-.511,2.476,2.476,0,0,1,.637-.371,1.907,1.907,0,0,1,.714-.14,3.462,3.462,0,0,1,.385.014l.217.028v1.54Q76.776-5.88,76.6-5.9a2.878,2.878,0,0,0-.343-.021,1.834,1.834,0,0,0-.763.161,1.752,1.752,0,0,0-.623.476,2.333,2.333,0,0,0-.42.777A3.363,3.363,0,0,0,74.3-3.444V0H72.7Zm4.2,0h1.2v-2.17h1.6v2.17h1.442v1.19H79.7v3.864a3.854,3.854,0,0,0,.021.434.749.749,0,0,0,.1.308.468.468,0,0,0,.231.189,1.137,1.137,0,0,0,.42.063q.168,0,.336-.007a1.669,1.669,0,0,0,.336-.049V-.014l-.518.056a4.689,4.689,0,0,1-.518.028,3.533,3.533,0,0,1-1.015-.119,1.355,1.355,0,0,1-.6-.35A1.208,1.208,0,0,1,78.2-.98a4.372,4.372,0,0,1-.091-.8v-4.27H76.9ZM88.354-1.61a.847.847,0,0,0,.077.42.325.325,0,0,0,.3.126H88.9a1.046,1.046,0,0,0,.224-.028V.014q-.084.028-.217.063T88.634.14q-.14.028-.28.042T88.116.2A1.539,1.539,0,0,1,87.3,0a.976.976,0,0,1-.42-.686,2.823,2.823,0,0,1-1.169.672A4.6,4.6,0,0,1,84.378.2,3.279,3.279,0,0,1,83.44.063a2.462,2.462,0,0,1-.791-.392A1.879,1.879,0,0,1,82.1-.987a2.027,2.027,0,0,1-.2-.931,2.15,2.15,0,0,1,.245-1.092,1.815,1.815,0,0,1,.644-.658,2.908,2.908,0,0,1,.9-.343q.5-.1,1-.161a8.19,8.19,0,0,1,.826-.119,3.876,3.876,0,0,0,.693-.119,1.061,1.061,0,0,0,.476-.259.713.713,0,0,0,.175-.525.818.818,0,0,0-.147-.5.987.987,0,0,0-.364-.3,1.572,1.572,0,0,0-.483-.14,3.871,3.871,0,0,0-.5-.035,2,2,0,0,0-1.106.28,1.092,1.092,0,0,0-.49.868h-1.6A2.4,2.4,0,0,1,82.5-6.188a2.321,2.321,0,0,1,.749-.742,3.064,3.064,0,0,1,1.029-.392,6.127,6.127,0,0,1,1.176-.112,4.954,4.954,0,0,1,1.05.112,2.983,2.983,0,0,1,.931.364,2.016,2.016,0,0,1,.665.651,1.786,1.786,0,0,1,.252.973Zm-1.6-2.016a1.937,1.937,0,0,1-.9.287q-.532.049-1.064.147a3.412,3.412,0,0,0-.49.119,1.476,1.476,0,0,0-.42.21.922.922,0,0,0-.287.35,1.2,1.2,0,0,0-.105.525.67.67,0,0,0,.154.448,1.119,1.119,0,0,0,.371.287,1.718,1.718,0,0,0,.476.147,2.955,2.955,0,0,0,.469.042,2.6,2.6,0,0,0,.574-.07,1.909,1.909,0,0,0,.581-.238,1.53,1.53,0,0,0,.455-.427,1.08,1.08,0,0,0,.182-.637ZM96.894,0H95.382V-.98h-.028a1.9,1.9,0,0,1-.938.9,3.178,3.178,0,0,1-1.3.273,3.457,3.457,0,0,1-1.491-.3,2.974,2.974,0,0,1-1.057-.819,3.5,3.5,0,0,1-.63-1.225,5.311,5.311,0,0,1-.21-1.519,4.854,4.854,0,0,1,.266-1.694A3.392,3.392,0,0,1,90.7-6.538a2.733,2.733,0,0,1,1.008-.679,3.207,3.207,0,0,1,1.155-.217,3.868,3.868,0,0,1,.686.063,3.022,3.022,0,0,1,.672.2,2.65,2.65,0,0,1,.6.357,1.979,1.979,0,0,1,.455.511H95.3V-10h1.6ZM91.322-3.542a3.53,3.53,0,0,0,.119.91,2.5,2.5,0,0,0,.364.8,1.842,1.842,0,0,0,.623.56,1.817,1.817,0,0,0,.9.21,1.792,1.792,0,0,0,.917-.224,1.9,1.9,0,0,0,.63-.588,2.659,2.659,0,0,0,.364-.819,3.664,3.664,0,0,0,.119-.931A2.925,2.925,0,0,0,94.815-5.5a1.776,1.776,0,0,0-1.463-.672,1.807,1.807,0,0,0-.945.231,1.943,1.943,0,0,0-.63.6,2.5,2.5,0,0,0-.35.84A4.376,4.376,0,0,0,91.322-3.542Zm13.37,1.932a.847.847,0,0,0,.077.42.325.325,0,0,0,.3.126h.168a1.046,1.046,0,0,0,.224-.028V.014q-.084.028-.217.063t-.273.063q-.14.028-.28.042T104.454.2a1.539,1.539,0,0,1-.812-.2.976.976,0,0,1-.42-.686,2.823,2.823,0,0,1-1.169.672,4.6,4.6,0,0,1-1.337.21,3.279,3.279,0,0,1-.938-.133,2.462,2.462,0,0,1-.791-.392,1.879,1.879,0,0,1-.546-.658,2.027,2.027,0,0,1-.2-.931,2.15,2.15,0,0,1,.245-1.092,1.815,1.815,0,0,1,.644-.658,2.908,2.908,0,0,1,.9-.343q.5-.1,1-.161a8.19,8.19,0,0,1,.826-.119,3.876,3.876,0,0,0,.693-.119,1.061,1.061,0,0,0,.476-.259.713.713,0,0,0,.175-.525.818.818,0,0,0-.147-.5.987.987,0,0,0-.364-.3,1.572,1.572,0,0,0-.483-.14,3.871,3.871,0,0,0-.5-.035,2,2,0,0,0-1.106.28,1.092,1.092,0,0,0-.49.868H98.5a2.4,2.4,0,0,1,.336-1.162,2.321,2.321,0,0,1,.749-.742,3.064,3.064,0,0,1,1.029-.392,6.127,6.127,0,0,1,1.176-.112,4.954,4.954,0,0,1,1.05.112,2.983,2.983,0,0,1,.931.364,2.016,2.016,0,0,1,.665.651,1.786,1.786,0,0,1,.252.973Zm-1.6-2.016a1.937,1.937,0,0,1-.9.287q-.532.049-1.064.147a3.412,3.412,0,0,0-.49.119,1.476,1.476,0,0,0-.42.21.922.922,0,0,0-.287.35,1.2,1.2,0,0,0-.105.525.67.67,0,0,0,.154.448,1.119,1.119,0,0,0,.371.287,1.718,1.718,0,0,0,.476.147,2.955,2.955,0,0,0,.469.042,2.6,2.6,0,0,0,.574-.07,1.909,1.909,0,0,0,.581-.238,1.53,1.53,0,0,0,.455-.427,1.08,1.08,0,0,0,.182-.637Z" transform="translate(1116.07 117.326)" fill="#696969"/>
  </g>
</svg>
