<svg xmlns="http://www.w3.org/2000/svg" width="184" height="38" viewBox="0 0 184 38">
  <g id="Grupo_20" data-name="Grupo 20" transform="translate(-1074 -145)">
    <g id="Rectángulo_3" data-name="Rectángulo 3" transform="translate(1074 145)" fill="#ededed" stroke="#696969" stroke-width="0.2">
      <rect width="184" height="38" rx="4" stroke="none"/>
      <rect x="0.1" y="0.1" width="183.8" height="37.8" rx="3.9" fill="none"/>
    </g>
    <g id="Grupo_10" data-name="Grupo 10" transform="translate(1054 -582)">
      <g id="Icon_feather-download" data-name="Icon feather-download" transform="translate(32.5 734.5)">
        <path id="Trazado_1" data-name="Trazado 1" d="M19.5,22.5v3.333A1.667,1.667,0,0,1,17.833,27.5H6.167A1.667,1.667,0,0,1,4.5,25.833V22.5" transform="translate(0 -8)" fill="none" stroke="#696969" stroke-linecap="round" stroke-linejoin="round" stroke-width="1.5"/>
        <path id="Trazado_2" data-name="Trazado 2" d="M10.5,15l4.167,4.167L18.833,15" transform="translate(-2.667 -4.667)" fill="none" stroke="#696969" stroke-linecap="round" stroke-linejoin="round" stroke-width="1.5"/>
        <path id="Trazado_3" data-name="Trazado 3" d="M18,14.5V4.5" transform="translate(-6)" fill="none" stroke="#696969" stroke-linecap="round" stroke-linejoin="round" stroke-width="1.5"/>
      </g>
      <path id="Trazado_19" data-name="Trazado 19" d="M1.14-10.71H5.58a5,5,0,0,1,2.13.42A3.958,3.958,0,0,1,9.18-9.142a4.9,4.9,0,0,1,.847,1.7A7.585,7.585,0,0,1,10.3-5.355a7.585,7.585,0,0,1-.277,2.085,4.9,4.9,0,0,1-.847,1.7A3.958,3.958,0,0,1,7.71-.42,5,5,0,0,1,5.58,0H1.14ZM3.015-1.53H4.86a4.679,4.679,0,0,0,1.793-.293,2.623,2.623,0,0,0,1.095-.81,2.924,2.924,0,0,0,.54-1.215A7.531,7.531,0,0,0,8.43-5.355a7.531,7.531,0,0,0-.142-1.508,2.924,2.924,0,0,0-.54-1.215,2.623,2.623,0,0,0-1.095-.81A4.679,4.679,0,0,0,4.86-9.18H3.015Zm14.04-3.03a2.758,2.758,0,0,0-.173-.78,2.078,2.078,0,0,0-.39-.653,1.931,1.931,0,0,0-.6-.45,1.768,1.768,0,0,0-.788-.173,2.055,2.055,0,0,0-.817.158,1.87,1.87,0,0,0-.63.435,2.151,2.151,0,0,0-.42.652,2.276,2.276,0,0,0-.172.81Zm-3.99,1.125a2.978,2.978,0,0,0,.127.87,2.144,2.144,0,0,0,.382.735,1.844,1.844,0,0,0,.645.5,2.128,2.128,0,0,0,.93.188,2.054,2.054,0,0,0,1.208-.322,1.906,1.906,0,0,0,.683-.968h1.62A3.224,3.224,0,0,1,18.195-1.3a3.235,3.235,0,0,1-.8.832,3.431,3.431,0,0,1-1.042.51A4.2,4.2,0,0,1,15.15.21a4.106,4.106,0,0,1-1.62-.3,3.349,3.349,0,0,1-1.193-.84A3.565,3.565,0,0,1,11.6-2.22a5.24,5.24,0,0,1-.248-1.65,4.668,4.668,0,0,1,.263-1.568,4.013,4.013,0,0,1,.75-1.3,3.587,3.587,0,0,1,1.177-.893,3.571,3.571,0,0,1,1.56-.33,3.475,3.475,0,0,1,1.642.382A3.6,3.6,0,0,1,17.955-6.57a4.1,4.1,0,0,1,.7,1.447,4.437,4.437,0,0,1,.112,1.688Zm8.3.945a1.288,1.288,0,0,0,.57,1.05,2.244,2.244,0,0,0,1.185.3,4.576,4.576,0,0,0,.548-.038,2.383,2.383,0,0,0,.577-.142,1.086,1.086,0,0,0,.443-.308.738.738,0,0,0,.157-.532.755.755,0,0,0-.24-.54,1.663,1.663,0,0,0-.578-.337,5.6,5.6,0,0,0-.8-.217q-.45-.09-.915-.2a8.588,8.588,0,0,1-.923-.255,2.977,2.977,0,0,1-.8-.4,1.871,1.871,0,0,1-.562-.653,2.085,2.085,0,0,1-.21-.983A1.764,1.764,0,0,1,20.122-6.8a2.357,2.357,0,0,1,.78-.69,3.4,3.4,0,0,1,1.05-.367,6.168,6.168,0,0,1,1.1-.105,5.045,5.045,0,0,1,1.147.128,3.118,3.118,0,0,1,.99.412,2.422,2.422,0,0,1,.735.743,2.57,2.57,0,0,1,.368,1.1H24.51a1.064,1.064,0,0,0-.562-.825,2.335,2.335,0,0,0-1.013-.21,3.623,3.623,0,0,0-.427.03,1.977,1.977,0,0,0-.465.113.978.978,0,0,0-.368.24.573.573,0,0,0-.15.412.653.653,0,0,0,.218.51,1.721,1.721,0,0,0,.57.322,5.6,5.6,0,0,0,.8.218q.45.09.93.195t.915.255a2.951,2.951,0,0,1,.8.4,1.968,1.968,0,0,1,.57.645,1.947,1.947,0,0,1,.217.96,2.086,2.086,0,0,1-.315,1.17,2.491,2.491,0,0,1-.818.78A3.718,3.718,0,0,1,24.3.075,5.654,5.654,0,0,1,23.085.21,5.288,5.288,0,0,1,21.728.045a3.164,3.164,0,0,1-1.08-.5,2.428,2.428,0,0,1-.72-.84A2.672,2.672,0,0,1,19.65-2.49ZM33.09-5.16a1.6,1.6,0,0,0-.577-1.087,1.884,1.884,0,0,0-1.193-.368,2.459,2.459,0,0,0-.7.113,1.673,1.673,0,0,0-.69.42,2.355,2.355,0,0,0-.525.855,4.07,4.07,0,0,0-.21,1.433,4.2,4.2,0,0,0,.112.96,2.625,2.625,0,0,0,.36.855,1.95,1.95,0,0,0,.637.608,1.814,1.814,0,0,0,.945.232,1.721,1.721,0,0,0,1.237-.465A2.161,2.161,0,0,0,33.09-2.91H34.8A3.756,3.756,0,0,1,33.653-.593a3.5,3.5,0,0,1-2.408.8A3.965,3.965,0,0,1,29.632-.1a3.418,3.418,0,0,1-1.177-.84A3.567,3.567,0,0,1,27.727-2.2a4.952,4.952,0,0,1-.247-1.59,5.432,5.432,0,0,1,.24-1.635,3.745,3.745,0,0,1,.72-1.328,3.369,3.369,0,0,1,1.192-.885,4.025,4.025,0,0,1,1.673-.322,4.674,4.674,0,0,1,1.283.172,3.378,3.378,0,0,1,1.08.518,2.755,2.755,0,0,1,.772.87A2.979,2.979,0,0,1,34.8-5.16Zm9.6,3.435a.907.907,0,0,0,.083.45.348.348,0,0,0,.322.135h.18a1.121,1.121,0,0,0,.24-.03V.015q-.09.03-.233.067T42.99.15q-.15.03-.3.045T42.435.21a1.649,1.649,0,0,1-.87-.21,1.046,1.046,0,0,1-.45-.735,3.024,3.024,0,0,1-1.252.72A4.932,4.932,0,0,1,38.43.21a3.513,3.513,0,0,1-1-.143,2.637,2.637,0,0,1-.847-.42,2.013,2.013,0,0,1-.585-.705,2.172,2.172,0,0,1-.217-1,2.3,2.3,0,0,1,.263-1.17,1.945,1.945,0,0,1,.69-.7,3.116,3.116,0,0,1,.96-.368q.532-.112,1.072-.173a8.775,8.775,0,0,1,.885-.127,4.153,4.153,0,0,0,.743-.128A1.137,1.137,0,0,0,40.9-5a.764.764,0,0,0,.188-.562.876.876,0,0,0-.158-.54,1.057,1.057,0,0,0-.39-.322,1.685,1.685,0,0,0-.518-.15,4.147,4.147,0,0,0-.54-.038,2.148,2.148,0,0,0-1.185.3,1.17,1.17,0,0,0-.525.93H36.06a2.574,2.574,0,0,1,.36-1.245,2.487,2.487,0,0,1,.8-.8,3.283,3.283,0,0,1,1.1-.42,6.564,6.564,0,0,1,1.26-.12,5.308,5.308,0,0,1,1.125.12,3.2,3.2,0,0,1,1,.39,2.16,2.16,0,0,1,.713.7,1.914,1.914,0,0,1,.27,1.043Zm-1.71-2.16a2.076,2.076,0,0,1-.96.308q-.57.052-1.14.157a3.655,3.655,0,0,0-.525.128,1.581,1.581,0,0,0-.45.225.988.988,0,0,0-.307.375,1.282,1.282,0,0,0-.113.562.718.718,0,0,0,.165.48,1.2,1.2,0,0,0,.4.307,1.841,1.841,0,0,0,.51.158,3.166,3.166,0,0,0,.5.045,2.785,2.785,0,0,0,.615-.075A2.045,2.045,0,0,0,40.3-1.47a1.639,1.639,0,0,0,.487-.458,1.157,1.157,0,0,0,.2-.682Zm3.555-3.87h1.6v1.5h.03a1.731,1.731,0,0,1,.292-.615,2.852,2.852,0,0,1,.525-.548,2.653,2.653,0,0,1,.682-.4,2.043,2.043,0,0,1,.765-.15,3.71,3.71,0,0,1,.413.015l.232.03v1.65q-.18-.03-.368-.052a3.083,3.083,0,0,0-.368-.023,1.965,1.965,0,0,0-.818.173,1.877,1.877,0,0,0-.667.51,2.5,2.5,0,0,0-.45.832,3.6,3.6,0,0,0-.165,1.14V0h-1.71Zm12.45,7.35A3.3,3.3,0,0,1,56,2.212a4.157,4.157,0,0,1-2.827.863A5.919,5.919,0,0,1,52,2.955a3.5,3.5,0,0,1-1.08-.4A2.6,2.6,0,0,1,50.1,1.8,2.28,2.28,0,0,1,49.71.66h1.71a1.369,1.369,0,0,0,.255.585A1.314,1.314,0,0,0,52.1,1.6a1.626,1.626,0,0,0,.548.165,5.081,5.081,0,0,0,.63.037A1.994,1.994,0,0,0,54.8,1.29a2.066,2.066,0,0,0,.48-1.47V-1.365h-.03a2.6,2.6,0,0,1-.983,1A2.637,2.637,0,0,1,52.92,0a3.544,3.544,0,0,1-1.583-.323,3.011,3.011,0,0,1-1.08-.885,3.677,3.677,0,0,1-.622-1.3A6.123,6.123,0,0,1,49.44-4.08a4.576,4.576,0,0,1,.24-1.485A3.786,3.786,0,0,1,50.37-6.8a3.3,3.3,0,0,1,1.1-.847,3.356,3.356,0,0,1,1.478-.315,2.976,2.976,0,0,1,1.35.307,2.087,2.087,0,0,1,.945.968h.03V-7.755h1.71ZM53.19-1.35a1.886,1.886,0,0,0,.967-.232A1.9,1.9,0,0,0,54.8-2.2a2.707,2.707,0,0,0,.36-.87,4.356,4.356,0,0,0,.112-.983,3.826,3.826,0,0,0-.12-.96,2.58,2.58,0,0,0-.368-.825,1.776,1.776,0,0,0-.645-.57,2.014,2.014,0,0,0-.952-.21,1.8,1.8,0,0,0-.96.24,1.922,1.922,0,0,0-.63.622,2.686,2.686,0,0,0-.345.87,4.584,4.584,0,0,0-.1.967,3.68,3.68,0,0,0,.12.938,2.589,2.589,0,0,0,.368.818,1.961,1.961,0,0,0,.63.585A1.789,1.789,0,0,0,53.19-1.35Zm12.015-.375a.907.907,0,0,0,.082.45.348.348,0,0,0,.323.135h.18a1.121,1.121,0,0,0,.24-.03V.015q-.09.03-.232.067T65.505.15q-.15.03-.3.045T64.95.21A1.649,1.649,0,0,1,64.08,0a1.046,1.046,0,0,1-.45-.735,3.024,3.024,0,0,1-1.252.72A4.932,4.932,0,0,1,60.945.21a3.513,3.513,0,0,1-1-.143,2.637,2.637,0,0,1-.847-.42,2.013,2.013,0,0,1-.585-.705,2.172,2.172,0,0,1-.217-1,2.3,2.3,0,0,1,.263-1.17,1.945,1.945,0,0,1,.69-.7A3.116,3.116,0,0,1,60.2-4.3q.532-.112,1.073-.173A8.775,8.775,0,0,1,62.16-4.6a4.153,4.153,0,0,0,.743-.128A1.137,1.137,0,0,0,63.413-5a.764.764,0,0,0,.188-.562.876.876,0,0,0-.158-.54,1.057,1.057,0,0,0-.39-.322,1.685,1.685,0,0,0-.518-.15A4.147,4.147,0,0,0,62-6.615a2.148,2.148,0,0,0-1.185.3,1.17,1.17,0,0,0-.525.93h-1.71a2.574,2.574,0,0,1,.36-1.245,2.487,2.487,0,0,1,.8-.8,3.283,3.283,0,0,1,1.1-.42,6.564,6.564,0,0,1,1.26-.12,5.308,5.308,0,0,1,1.125.12,3.2,3.2,0,0,1,1,.39,2.16,2.16,0,0,1,.712.7,1.914,1.914,0,0,1,.27,1.043ZM63.5-3.885a2.076,2.076,0,0,1-.96.308q-.57.052-1.14.157a3.655,3.655,0,0,0-.525.128,1.581,1.581,0,0,0-.45.225.988.988,0,0,0-.307.375A1.282,1.282,0,0,0,60-2.13a.718.718,0,0,0,.165.48,1.2,1.2,0,0,0,.4.307,1.841,1.841,0,0,0,.51.158,3.166,3.166,0,0,0,.5.045,2.785,2.785,0,0,0,.615-.075,2.045,2.045,0,0,0,.622-.255,1.639,1.639,0,0,0,.488-.458A1.157,1.157,0,0,0,63.5-2.61Zm3.555-3.87h1.6v1.5h.03a1.731,1.731,0,0,1,.292-.615,2.852,2.852,0,0,1,.525-.548,2.653,2.653,0,0,1,.682-.4,2.043,2.043,0,0,1,.765-.15,3.71,3.71,0,0,1,.412.015l.232.03v1.65q-.18-.03-.368-.052a3.083,3.083,0,0,0-.368-.023,1.965,1.965,0,0,0-.817.173,1.878,1.878,0,0,0-.668.51,2.5,2.5,0,0,0-.45.832,3.6,3.6,0,0,0-.165,1.14V0H67.05Zm9.495-2.955h1.71v1.62h-1.71Zm0,2.955h1.71V0h-1.71Zm3.57,0h1.62v1.08h.045A4.391,4.391,0,0,1,82.2-7.2a2.291,2.291,0,0,1,.5-.405,2.541,2.541,0,0,1,.637-.262,3.165,3.165,0,0,1,.825-.1,2.809,2.809,0,0,1,1.313.315,1.781,1.781,0,0,1,.863.975,3.452,3.452,0,0,1,1-.945,2.71,2.71,0,0,1,1.425-.345,2.8,2.8,0,0,1,1.912.6,2.56,2.56,0,0,1,.683,2.01V0h-1.71V-4.53q0-.465-.03-.848a1.731,1.731,0,0,0-.173-.66.981.981,0,0,0-.428-.428,1.69,1.69,0,0,0-.78-.15,1.448,1.448,0,0,0-1.26.54,2.582,2.582,0,0,0-.39,1.53V0h-1.71V-4.98A2.111,2.111,0,0,0,84.592-6.2a1.23,1.23,0,0,0-1.073-.412,1.57,1.57,0,0,0-.637.135,1.589,1.589,0,0,0-.54.39,1.952,1.952,0,0,0-.375.63,2.4,2.4,0,0,0-.143.855V0h-1.71ZM99.66-1.725a.907.907,0,0,0,.083.45.348.348,0,0,0,.323.135h.18a1.121,1.121,0,0,0,.24-.03V.015q-.09.03-.232.067T99.96.15q-.15.03-.3.045T99.4.21a1.649,1.649,0,0,1-.87-.21,1.046,1.046,0,0,1-.45-.735,3.024,3.024,0,0,1-1.253.72A4.932,4.932,0,0,1,95.4.21,3.513,3.513,0,0,1,94.395.067a2.637,2.637,0,0,1-.847-.42,2.013,2.013,0,0,1-.585-.705,2.172,2.172,0,0,1-.217-1,2.3,2.3,0,0,1,.262-1.17,1.945,1.945,0,0,1,.69-.7,3.116,3.116,0,0,1,.96-.368q.533-.112,1.072-.173a8.775,8.775,0,0,1,.885-.127,4.153,4.153,0,0,0,.743-.128A1.137,1.137,0,0,0,97.868-5a.764.764,0,0,0,.188-.562.876.876,0,0,0-.158-.54,1.057,1.057,0,0,0-.39-.322,1.685,1.685,0,0,0-.518-.15,4.147,4.147,0,0,0-.54-.038,2.148,2.148,0,0,0-1.185.3,1.17,1.17,0,0,0-.525.93H93.03a2.574,2.574,0,0,1,.36-1.245,2.487,2.487,0,0,1,.8-.8,3.283,3.283,0,0,1,1.1-.42,6.564,6.564,0,0,1,1.26-.12,5.308,5.308,0,0,1,1.125.12,3.2,3.2,0,0,1,1,.39,2.16,2.16,0,0,1,.713.7,1.914,1.914,0,0,1,.27,1.043Zm-1.71-2.16a2.076,2.076,0,0,1-.96.308q-.57.052-1.14.157a3.655,3.655,0,0,0-.525.128,1.581,1.581,0,0,0-.45.225.988.988,0,0,0-.308.375,1.282,1.282,0,0,0-.112.562.718.718,0,0,0,.165.48,1.2,1.2,0,0,0,.4.307,1.841,1.841,0,0,0,.51.158,3.166,3.166,0,0,0,.5.045,2.785,2.785,0,0,0,.615-.075,2.045,2.045,0,0,0,.623-.255,1.639,1.639,0,0,0,.487-.458,1.157,1.157,0,0,0,.195-.682Zm10.725,3.48a3.3,3.3,0,0,1-.982,2.617,4.157,4.157,0,0,1-2.827.863,5.919,5.919,0,0,1-1.178-.12,3.5,3.5,0,0,1-1.08-.4,2.6,2.6,0,0,1-.818-.75A2.28,2.28,0,0,1,101.4.66h1.71a1.369,1.369,0,0,0,.255.585,1.314,1.314,0,0,0,.427.352,1.626,1.626,0,0,0,.548.165,5.081,5.081,0,0,0,.63.037,1.994,1.994,0,0,0,1.515-.51,2.066,2.066,0,0,0,.48-1.47V-1.365h-.03a2.6,2.6,0,0,1-.983,1A2.637,2.637,0,0,1,104.61,0a3.544,3.544,0,0,1-1.582-.323,3.011,3.011,0,0,1-1.08-.885,3.677,3.677,0,0,1-.622-1.3,6.123,6.123,0,0,1-.195-1.575,4.576,4.576,0,0,1,.24-1.485,3.786,3.786,0,0,1,.69-1.238,3.3,3.3,0,0,1,1.1-.847,3.356,3.356,0,0,1,1.477-.315,2.976,2.976,0,0,1,1.35.307,2.087,2.087,0,0,1,.945.968h.03V-7.755h1.71ZM104.88-1.35a1.886,1.886,0,0,0,.967-.232,1.9,1.9,0,0,0,.645-.615,2.707,2.707,0,0,0,.36-.87,4.356,4.356,0,0,0,.113-.983,3.826,3.826,0,0,0-.12-.96,2.58,2.58,0,0,0-.368-.825,1.776,1.776,0,0,0-.645-.57,2.014,2.014,0,0,0-.952-.21,1.8,1.8,0,0,0-.96.24,1.922,1.922,0,0,0-.63.622,2.686,2.686,0,0,0-.345.87,4.584,4.584,0,0,0-.105.967,3.68,3.68,0,0,0,.12.938,2.589,2.589,0,0,0,.368.818,1.961,1.961,0,0,0,.63.585A1.789,1.789,0,0,0,104.88-1.35Zm10.845-3.21a2.757,2.757,0,0,0-.173-.78,2.078,2.078,0,0,0-.39-.653,1.931,1.931,0,0,0-.6-.45,1.768,1.768,0,0,0-.787-.173,2.055,2.055,0,0,0-.818.158,1.87,1.87,0,0,0-.63.435,2.152,2.152,0,0,0-.42.652,2.276,2.276,0,0,0-.173.81Zm-3.99,1.125a2.978,2.978,0,0,0,.128.87,2.144,2.144,0,0,0,.382.735,1.844,1.844,0,0,0,.645.5,2.128,2.128,0,0,0,.93.188,2.054,2.054,0,0,0,1.207-.322,1.906,1.906,0,0,0,.683-.968h1.62a3.224,3.224,0,0,1-.465,1.125,3.235,3.235,0,0,1-.795.832,3.431,3.431,0,0,1-1.043.51A4.2,4.2,0,0,1,113.82.21a4.106,4.106,0,0,1-1.62-.3,3.349,3.349,0,0,1-1.192-.84,3.564,3.564,0,0,1-.735-1.29,5.24,5.24,0,0,1-.247-1.65,4.668,4.668,0,0,1,.262-1.568,4.013,4.013,0,0,1,.75-1.3,3.587,3.587,0,0,1,1.177-.893,3.571,3.571,0,0,1,1.56-.33,3.475,3.475,0,0,1,1.643.382,3.6,3.6,0,0,1,1.207,1.013,4.1,4.1,0,0,1,.7,1.447,4.437,4.437,0,0,1,.112,1.688Zm7-4.32h1.62v1.14l.03.03A2.867,2.867,0,0,1,121.41-7.6a2.718,2.718,0,0,1,1.395-.368,2.9,2.9,0,0,1,2.01.66,2.526,2.526,0,0,1,.735,1.98V0h-1.71V-4.875a2.107,2.107,0,0,0-.39-1.328,1.417,1.417,0,0,0-1.125-.412,1.858,1.858,0,0,0-.78.158,1.691,1.691,0,0,0-.585.435,2.045,2.045,0,0,0-.375.652,2.329,2.329,0,0,0-.135.8V0h-1.71Z" transform="translate(60.86 752)" fill="#696969"/>
    </g>
  </g>
</svg>
