<svg xmlns="http://www.w3.org/2000/svg" width="45.562" height="38.463" viewBox="0 0 45.562 38.463">
  <path id="Trazado_4" data-name="Trazado 4" d="M127.183,72.158l.637-.245c.012-.248-.253-.329-.476-.379Zm-16.534-2.941.69.049c.087-.256-.185-.482-.309-.54Zm14.792,3.194.671-.059-.052-.773C125.857,71.8,125.542,72.3,125.44,72.411Zm-7.434-.668.678.011L118.7,71a.8.8,0,0,0-.192.168,2.379,2.379,0,0,0-.173.2C118.213,71.516,118.113,71.594,118.007,71.743Zm-10-3.714.618.268.386-.8A8.366,8.366,0,0,0,108,68.029Zm37.85.969a6.647,6.647,0,0,0,.476,1.165c.217.09.65-.616.646-.843,0-.159-.28-.26-.429-.306A2.013,2.013,0,0,0,145.853,69Zm-36.943.275a1.877,1.877,0,0,0,1.16-.2c.22-.145.22-.735-.151-1.042l-.783.885C109.035,69.04,108.931,69.08,108.911,69.273Zm23.344,1.977c-.058.354-.135.713-.2,1.071-.021.112-.133.434-.028.492.166.093.617-.389.728-.509s.243-.232.18-.452A.846.846,0,0,0,132.254,71.249Zm-9.441,7.488a3.026,3.026,0,0,0-.343.838c-.153.447-.176.632.4.624.515-.007.409-.272.323-.7C123.154,79.282,123.063,78.527,122.814,78.737ZM148.3,67.887a1.3,1.3,0,0,0-.834.455c-.142.124-.191.176-.18.455.008.2.068.411.3.329a1.914,1.914,0,0,0,.372-.256,1.317,1.317,0,0,0,.307-.345C148.494,68.191,148.863,67.769,148.3,67.887Zm-11.748,3.055-.275,1.315c-.024.128-.062.218.074.22a1.168,1.168,0,0,0,.427-.221c.107-.084.22-.222.313-.308C137.569,71.505,137.027,71.061,136.547,70.941Zm-12.9,1.773a.374.374,0,0,0,.01-.267c-.152-.026-.811.172-1.1.185.066-.367.887-1.457.814-1.656-.175-.248-.506.486-.552.564-.392.668-1,1.342-.166,1.385A2.754,2.754,0,0,0,123.65,72.715ZM116.2,79.758a2.15,2.15,0,0,0,1.055-.05,1.46,1.46,0,0,0-.172-.709c-.1-.29-.15-.62-.368-.522-.111.05-.272.468-.335.6C116.276,79.282,116.105,79.5,116.2,79.758Zm5.307-8.475a1.713,1.713,0,0,0,.427.039,9.876,9.876,0,0,1-.491,1.1,1.148,1.148,0,0,0-.449.085c-.06.312.3.251.545.263.279.014.6.082.558-.274l-.367.006.492-1.089.5,0c.142-.286.245-.241-.522-.35C121.946,71.024,121.384,70.879,121.505,71.283Zm8.022,2.1c.335.051,1.062-.448.841-.962a1.451,1.451,0,0,0-.277-.376c-.251-.313.011-.392.371-.7.158-.133.718-.458.644-.652-.09-.235-.34.06-.388.1-.133.11-.216.164-.356.3-.245.231-.965.5-.572,1.129.119.19.259.264.266.393C130.083,73.155,129.423,72.924,129.527,73.386Zm-9.951,4.943c.422.029.782-.306,1.219-.584.139-.088.258-.165.251-.389a2.5,2.5,0,0,0-1.211-.068c-.262.034-.3.118-.286.392C119.556,77.895,119.559,78.116,119.576,78.329Zm-5.515-6.5c.1.092.185.009.333-.111l.887-.7c.2-.155.4-.3.594-.462.331-.271.543-.32.456-.562-.224-.064-.526.242-.754.419a5.08,5.08,0,0,1-.714.521l.108-1.09c-.338,0-.288.1-.319.413-.023.238-.043.468-.059.707-.022.313,0,.234-.278.455C114.231,71.488,113.916,71.672,114.062,71.828Zm35.9-3.807v-.705c-.313-.464-.842-.068-1.227-.215-.308-.118,0-.71-.033-1.024l-.035-.153a.142.142,0,0,0-.01-.024c-.222-.016-.248.054-.373.161-.018.232.025.479,0,.716a.947.947,0,0,0,.042.606c.353.535,1.082-.336,1.216.217a.382.382,0,0,1-.022.262c-.066.2-.052.264.1.364A.684.684,0,0,0,149.964,68.021Zm-33.052,2.545c-.244.56-.232.256-.32.4-.074.189.1.035.011.279s-.353.654-.309.9c.214.127.3-.086.375-.3a5.078,5.078,0,0,0,.2-.613,3.058,3.058,0,0,0,1.006.026c.087-.063.142-.165.073-.245s-.165-.032-.423-.034a3.7,3.7,0,0,1-.456-.026.615.615,0,0,1,.118-.353,5.479,5.479,0,0,0,1.2.168l.024-.248c-.211-.1-.8-.119-1.118-.218a1.555,1.555,0,0,0-.519-.121.183.183,0,0,0-.069.241C116.759,70.549,116.819,70.47,116.912,70.566Zm26.774.27c-.141-.016-.435-.341-.517-.464-.106-.158-.084-.656-.46-.382-.037.123-.044.8-.054.981-.018.332-.093.716.351.562a2.431,2.431,0,0,0-.016-.652l.01-.175a.134.134,0,0,1,.008-.023c.087.159.42.531.727.487.372-.053.418-.451.447-.82a5.041,5.041,0,0,0,.03-.585c-.037-.189-.317-.224-.358-.03C143.793,70.018,143.972,70.645,143.686,70.836Zm-37.694-3.743a.825.825,0,0,0,.55-.276c.083-.064.413-.3.439-.333.013.167-.07.287-.049.479.156.2.28.149.583.167-.22.432-.761.9-.523,1.051.149.066.2-.14.3-.268l.588-.717c.1-.125.246-.222.2-.45-.28-.158-.284.257-.767.085-.366-.131.259-.763.313-.824s.286-.338.078-.4a8.715,8.715,0,0,0-1.451,1.074C106.115,66.8,105.987,66.851,105.992,67.093ZM119.059,72.7c.257-.029.446-.6.666-.974.1.232.092.326.4.377.241.04.356-.143.541-.237-.028.3-.223.863.066,1,.214-.087.2-.531.215-.78.02-.278.192-.6.115-.8-.365-.125-.448.464-.962.466a1.288,1.288,0,0,1-.089-.414,1.647,1.647,0,0,0,.03-.49c-.113-.428-.344.289-.4.4-.118.235-.231.466-.35.707C119.186,72.169,118.976,72.461,119.059,72.7Zm6.546,5.806a3.479,3.479,0,0,0,1.42-.747.473.473,0,0,0,.088-.557,3.431,3.431,0,0,0-1.312.017c-.253.1-.2.223-.2.522C125.606,78,125.606,78.253,125.6,78.507Zm2.755-7.143c.023.262.045.239.293.214a.954.954,0,0,1-.211.424c-.143.118-.346.034-.305.293l.192.073c-.05.19-.5.977.291.874a1.883,1.883,0,0,0,.575-.175c.2-.108.356-.158.269-.455-.243-.047-.24.122-.431.2a1.409,1.409,0,0,1-.567.086c-.046-.109.117-.453.154-.592.18-.027.97-.108.938-.34-.129-.235-.463-.053-.735-.014a1.974,1.974,0,0,1,.087-.382c.043-.1,0-.067.108-.109a.487.487,0,0,1,.193-.026,1.1,1.1,0,0,0,.392.018.275.275,0,0,0,.161-.263c-.029-.163-.539-.061-.708-.035A2.584,2.584,0,0,0,128.36,71.364Zm5.135-.208c.046.273.091.172.306.164a.91.91,0,0,1-.156.416c-.134.16-.325.041-.3.321l.177.057a.248.248,0,0,1,.028.005c-.035.174-.42,1.071.394.846a2.02,2.02,0,0,0,.531-.215c.158-.1.346-.2.228-.466-.262-.065-.215.14-.433.23a1.434,1.434,0,0,1-.553.132,1.486,1.486,0,0,1,.131-.576c.057-.069.1-.061.248-.1.17-.046.732-.155.639-.377-.184-.185-.451.023-.734.075l.072-.452c.224-.193.434-.018.656-.106.1-.038.348-.406-.095-.349A2.182,2.182,0,0,0,133.495,71.156Zm7.493-.806c.006,0,.014.006.017.016.013.043.1.054.136.055a1.335,1.335,0,0,0,.181-.034c.031.531-.462.435-.429.74l.233.01c-.02.278-.248.748.153.813a1.6,1.6,0,0,0,1.165-.523c.057-.193-.115-.3-.283-.153-.143.124-.072.145-.326.234a1,1,0,0,1-.475.112,1.076,1.076,0,0,1,.1-.557,2.592,2.592,0,0,1,.5-.177c.178-.061.429-.088.393-.318-.21-.151-.535.075-.784.133l.038-.447a1.536,1.536,0,0,1,.553-.1c.191-.02.355-.154.262-.335-.119-.122-.937.16-1.113.232-.14.057-.211.125-.322.179ZM127.1,71.432a2.127,2.127,0,0,1-.287.866c-.116.224.021.209-.083.445-.06.136-.185.292-.095.433.2.1.261-.227.341-.374.28.1.919.667,1.02.188-.1-.122-.752-.334-.839-.571.133-.052.7-.226.794-.288.706-.488-.358-.879-.758-.972-.151-.035-.35-.126-.405.037C126.711,71.415,126.938,71.433,127.1,71.432Zm-19.623-3.558c-.13.218.058.163-.148.287,0,0-.237.126-.171.2.218.134.344-.066.494-.139l.839.358c-.086.136-.231.452-.137.634l.21-.006a3.842,3.842,0,0,0,.184-.565c.21-.032.211.026.271-.158-.061-.067-.052-.056-.153-.088.095-.363,1.031-1.743.156-1.245l-1.1.67C107.607,68.012,107.773,67.805,107.475,67.874Zm-.882,11.575c.38.1.8-.412.956-.628.133-.183.675-.909.282-1.136a2.049,2.049,0,0,0-.71-.091c-.3-.006-.43.081-.466.363A5.059,5.059,0,0,0,106.594,79.449ZM117.3,72.108c-.1.082-.13.106-.074.251.216.047.386-.193.461-.295l.98-.044.031.507c.42.113.274-.281.317-.564.124-.06.123-.027.188-.124-.024-.077.005-.049-.127-.119l-.067-.036.04-.911c0-.012.2-.415-.118-.371-.216.029-1.217,1.328-1.479,1.393C117.246,71.846,117.127,71.915,117.3,72.108Zm21.856,7.65c.478-.227,1.892-1.739,1.358-2.2-.218-.187-.458-.13-.758-.083-.363.057-.42.136-.463.493C139.228,78.534,139.173,79.192,139.157,79.758Zm-7.328-6.587c.146.108.256-.018.4-.113a2.148,2.148,0,0,0,.991-1c.127-.357.021-.348-.391-.826l-.325-.327a1.036,1.036,0,0,0-.2-.141c-.1-.066-.084-.062-.166-.165-.394-.007-.2.231-.156.465.064.361-.37,1.353-.2,1.782.047.122.052.039.066.146C131.863,73.133,131.812,72.985,131.829,73.171Zm9.159-2.821a1.52,1.52,0,0,0-.819.023c-.262.044-.622.075-.86.132,0-.007-.008-.027-.01-.022s.022-.164-.314-.118l-.815.182c-.137.046-.228.119-.339.159l.051.2c.148.032.143,0,.261-.012a.514.514,0,0,1-.249.466c-.105.053-.189.058-.221.159-.051.164.1.133.218.117-.037.254-.284.7.013.832a1.378,1.378,0,0,0,.9-.168.929.929,0,0,0,.314-.252c.083-.213-.092-.312-.252-.183s-.049.14-.344.217a1.071,1.071,0,0,1-.444.088c-.049-.169.079-.411.108-.584.195-.04,1.147-.2.9-.459-.172-.114-.526.067-.729.1.056-.829.3-.368.822-.559.238.292.445.108.787.051a6.754,6.754,0,0,0-.148,1.35c.414.118.31-.2.333-.538.017-.256.022-.583.063-.833C140.891,70.594,140.94,70.663,140.987,70.35Zm-4.807.009c-.059.256.137.294.071.629-.043.217-.094.425-.14.636a2.732,2.732,0,0,0-.108.652.5.5,0,0,0,.082.305c.116.2-.046.043.021.257.171.073.318-.073.465-.162.43-.26.916-.532,1.042-1.073.051-.217-.124-.325-.218-.429-.118-.132-.224-.24-.354-.36a5.049,5.049,0,0,0-.574-.453C136.367,70.283,136.3,70.286,136.181,70.359Zm-24.372-1.412-.02.205a1.168,1.168,0,0,0,.212.078.543.543,0,0,1-.4.342s-.452,0-.267.2l.117.074a.129.129,0,0,1,.02.013c-.245.234-.662.687-.175.888a1.662,1.662,0,0,0,1.038-.007c.136-.087.166-.406-.177-.27a1.037,1.037,0,0,1-.766-.061.494.494,0,0,1,.152-.242c.092-.108.108-.142.193-.242.233-.018.894.216,1,.008a1.553,1.553,0,0,0,.184.789.91.91,0,0,1-.215.326c-.12.1-.263.07-.42.109-.256.063-.173.459.4.209a1.038,1.038,0,0,0,.521-.536c.089-.33-.185-.607-.136-.915.073-.169.876-.443,1.079-.532.167-.073.282-.076.249-.307-.185-.121-.281-.014-.432.061s-.294.146-.445.207c-.453.183-.524.179-.76.548-.079-.228-.237-.187-.68-.238.011-.132.171-.28.23-.4.356,0,.271.056.521.155a.265.265,0,0,0,.388-.218A2.487,2.487,0,0,0,111.808,68.947Zm11.842,3.768c-.153.349.475.255.809.227a.3.3,0,0,0,.163-.036c.1-.048.011-.047.158-.081-.1.153-.128.1-.044.288.161,0,.223-.089.3-.171.1-.111.08-.168.268-.2.264-.044.568-.1.831-.122l.086.5c.423.077.236-.312.258-.594.148-.079.13-.009.172-.155-.066-.1-.076-.081-.207-.087l-.051-.964a.456.456,0,0,0-.005-.317c-.243-.086-.3.085-.51.359l-.814,1.051a1.129,1.129,0,0,1-.694.254l.373-1.129c.3-.023.574.028.555-.285-.129-.083-1.681-.184-1.26.207.089.088.257.02.412.023l-.362,1.134Zm13.8,3.807c-.205.064-.278.168-.294.406-.015.217-.029.438-.043.657l-.181,2.678c-.016.219-.055.483.085.61a.473.473,0,0,0,.544-.034c.682-.458.328-2.3.4-3.025.023-.236.333-.777,0-1.144A.473.473,0,0,0,137.447,76.522Zm-27.316-7.161c-.061.186.109.125-.151.365a3.317,3.317,0,0,0-.295.273c.217.533.446-.063.556-.161.025.065.46.91.7.661.142-.181-.429-.723-.449-.974.514-.135.593.2,1.194-.233a1.44,1.44,0,0,0-.583-1.026c-.139-.111-.142-.226-.343-.211-.147.211-.093.345.082.493a.994.994,0,0,1-.3.406,9.4,9.4,0,0,0-.192-.928,1.655,1.655,0,0,0-.152-.407c-.1-.2,0-.294-.317-.287-.067.143-.079.364-.156.491a1.022,1.022,0,0,1-.161.18,4.475,4.475,0,0,0-.859,1.129c-.05.231.087.051-.051.23-.2.258.086.225.332.209A2.7,2.7,0,0,0,110.132,69.361Zm32.929,8.525a1.682,1.682,0,0,0-1.031,1.535c.02.336.033.842.309.977a1.007,1.007,0,0,0,1.01-.013,1.672,1.672,0,0,0,.743-.53,1.138,1.138,0,0,0-1.031-1.969Zm3.994-8.965c-.6-.094-.65-.173-1.47-.272-.194-.023-.334-.082-.409.116.114.156.241.121.354.317-.252.028-.522.086-.777.127-.238.039-.615.063-.551.312.137.148.371.012.534-.031l-.085,1.107a1.161,1.161,0,0,0-.46.219l.017.108c.2.11.461,0,.705-.064.226-.056.6-.09.492-.357l-.1-.025a2.248,2.248,0,0,1-.338.087l.112-1.09.533-.151c.2.283.163.674.473.926a1.206,1.206,0,0,0,.162.091c.163.122-.084.051.124.137.14.06.216-.078.28-.144a2.346,2.346,0,0,0,.62-.872.725.725,0,0,0,.608-.168c.307-.265,1.083-1.077.984-1.511-.056-.247-.368-.186-.6-.153C147.332,67.764,147.029,67.882,147.055,68.92Zm-37.416,7.956c0,.1-.29,2.956-.362,3.111-.06.127-.164.165-.145.4.029.337.34.333.663.332h2.517c.24,0,.275.036.4-.115.223-.266.185-.49-.111-.569a17.319,17.319,0,0,0-1.908.062c-.5.012-.433-.127-.4-.542.068-.809-.065-1.42.554-1.466a5.694,5.694,0,0,0,1.739-.268c-.015-.307-.581-.255-.993-.266a4.193,4.193,0,0,1-1.183-.087.366.366,0,0,1,.064-.277c.513-.072,1.38-.054,1.927-.064.178,0,.3,0,.382-.115a.536.536,0,0,0,.031-.423c-.083-.2-.6-.141-.837-.157-.63-.041-1.222-.069-1.831-.153-.241-.033-.662-.1-.843.049C109.208,76.4,109.088,76.764,109.639,76.877Zm15.176-24.858h-1.567a4.028,4.028,0,0,1-.5.128c-.165.046-.346.091-.507.146a2.1,2.1,0,0,0-.725.546c-.477.737.058,1.336.412,1.769.207.253,1.005.958,1.315,1.263.211.207.421.477.62.655.123.109.344.048.515-.017.55-.209,1.585,0,1.814-.114.058-.029.559-.55.656-.646a4.069,4.069,0,0,0,.973-1.606,1.709,1.709,0,0,0-.9-1.639,2.983,2.983,0,0,0-.99-.284ZM112.441,81.688c.385.409.9-.2,1.193-.509l.719-.741a1.222,1.222,0,0,1,.256-.251l.143.085c-.022.185-.331.914.287.8.47-.09.452-.433.688-.668l1.666,0c.277.421.233.717.585.777.712.123.422-.762.421-.812l.232,0c-.026.24-.043.447.2.516.971.275.479-1.326.752-1.547a1.758,1.758,0,0,1,.479-.3,3.628,3.628,0,0,0,1.567-.794,1.912,1.912,0,0,0,.516-1.029c.016-.611-.539-.507-1.044-.519l-1.554-.039c-.534-.014-.928-.112-1.5-.1-.193.368-.211.441.587.578l.008,2.682-.366.007a2.5,2.5,0,0,1-.228-.92c-.077-.415-.366-1.427-.5-1.864-.1-.326-.153-1.139-.827-.876-.291.113-.493.689-.692,1.079a9.725,9.725,0,0,0-.59,1.618l-.018.044c-.031.061,0,.019-.039.053-.1-.057-.065-.041-.087-.19a2.094,2.094,0,0,0-.047-.238c-.043-.164-.068-.3-.214-.375-.2-.1-.9-.218-.94-.244-.219-.157.2-.381.428-.56l.981-.758c.487-.371.029-.964-.5-.653a7.046,7.046,0,0,0-1.4.964c-.217.18-.388.356-.606.543-.747.64.232,1.061.736,1.088.137.007.911-.009.664.436-.121.219-1.342,1.607-1.6,1.912C112.653,81.063,112.366,81.339,112.441,81.688Zm5.2-28.013a11.84,11.84,0,0,0-4.2,1.3c-.433.327-.8.431-.314,1.109a4.906,4.906,0,0,0,2.492,1.173c.516.125,1.026.187,1.549.288a13.55,13.55,0,0,0,3.071.629c.648-.055.9-.115,1.21-.626.171-.279.166-.275.539-.361a1.452,1.452,0,0,1,.425-.06,2.511,2.511,0,0,0,.452,0,.379.379,0,0,0,.185-.587,3.793,3.793,0,0,0-.385-.546,7.075,7.075,0,0,0-1.975-1.69A5.906,5.906,0,0,0,117.638,53.675ZM126.4,56.8c-.547.052-1.09.088-1.629.162a6.32,6.32,0,0,0-2.551.992c-.229.225-.727.546-.668,1.107.084.785,1.218,1.3,2.005,1.531a10.456,10.456,0,0,0,6.177-.249,4.718,4.718,0,0,0,1.2-.566,1.737,1.737,0,0,0,.672-1.14c-.011-.8-1.259-1.307-2.023-1.527A8.834,8.834,0,0,0,126.4,56.8ZM145.312,78.3c-.1-.122-.514-1.416-1.5-1.554a4.573,4.573,0,0,0-1.367.151,2.271,2.271,0,0,0-.7.6l-.1.131c-.118-.19-.088-.442-.651-.671a7.324,7.324,0,0,0-2.413-.174.459.459,0,0,0-.3.657c.059.149.154.057.177.171,0,.375.053,2.519-.013,2.691-.045.115-.478.63-.591.784-.386.528.354,1.077.839.466.111-.14.184-.253.292-.391.121-.154,1.48-1.363,1.776-1.641a1.7,1.7,0,0,0,.158-.184c.022-.026.039-.05.069-.083l.116-.1a7.327,7.327,0,0,0,.033,1.117.92.92,0,0,0,.409.737,2.175,2.175,0,0,0,1.764.5,2.836,2.836,0,0,0,1.537-.761c.37-.418.248-1.043.545-1.2a4.178,4.178,0,0,1,.377-.213c.517-.211,1.309-.031,1.012.421a1.09,1.09,0,0,1-.13.149l-.4.469c-.115.119-.189.182-.292.3a5,5,0,0,1-.626.555c-.374.334-1.123.944-.72,1.37.225.238.638.039.837-.1a18.056,18.056,0,0,0,1.543-1.936,8.566,8.566,0,0,1,1.151-1.147c.133-.112.473-.407.389-.732-.127-.495-1.121-.4-1.651-.064-.095.059-.255.217-.4.161s-.147-.263-.015-.391l1.482-1.375c.477-.4.585-.914-.148-.874-.313.017-.431.146-.755.405-.224.179-.425.34-.638.512l-.594.554A1.456,1.456,0,0,0,145.312,78.3ZM112.295,57.048c-1.556.26-1.9.813-2.963,1.9a8.974,8.974,0,0,0-1.074,1.349,1.492,1.492,0,0,0-.272,1.793,1.927,1.927,0,0,0,1.259,1.165,4.253,4.253,0,0,0,2.1-.186,3.925,3.925,0,0,0,.795-.416,6.947,6.947,0,0,1,.826-.386c.559-.242,1.137-.492,1.688-.735s1.147-.478,1.716-.707a7.742,7.742,0,0,1,1.919-.505,15.081,15.081,0,0,1,1.607-.2c.256,0,.334.075.556-.056.69-.406.562-1.087-.331-1.218a51.627,51.627,0,0,1-5.867-1.4A5.973,5.973,0,0,0,112.295,57.048ZM124.406,61.3c-.682.074-.8.3-1.169.837a17.64,17.64,0,0,0-2.188,3.777c-.426,1.157-.657,2.221.621,2.658a8.156,8.156,0,0,0,3.5.352c.585-.063,1.15-.162,1.718-.273.982-.193,2.136-.739,1.994-1.953a6.013,6.013,0,0,0-.407-1.58c-.339-.833-.629-.885-1.129-1.854-.11-.214-.241-.423-.367-.627-.3-.483-.412-.8-.917-1.071A3.106,3.106,0,0,0,124.406,61.3Zm10.3-2.183a4.747,4.747,0,0,0-1.977.456,5.056,5.056,0,0,0-.784.429,2.258,2.258,0,0,1-.778.464c-.51.16-.615.8.311,1.313,1.174.657,3.669,1.921,4.89,2.441a12.262,12.262,0,0,0,1.828.627c1.467.383,4.11-1.107,5.32-1.881.237-.152,1.091-.949.994-1.438-.064-.321-1.086-.8-1.487-.978A19.686,19.686,0,0,0,134.7,59.116ZM120.281,60.48a18.142,18.142,0,0,0-7.034,2.385c-.644.36-2.674,1.392-2.053,2.418a4.854,4.854,0,0,0,1.251,1.111,6.109,6.109,0,0,0,1.539.823,5.518,5.518,0,0,0,3.857.335,6.079,6.079,0,0,0,1.524-.837,28.288,28.288,0,0,0,2.018-2.7c.307-.419.619-.99.9-1.461s.521-1.34.033-1.769A3.364,3.364,0,0,0,120.281,60.48ZM104.419,81.626a.737.737,0,0,0,.188.7c.153.034.984-.711,1.16-.85.475-.376.166-.392,1.074-.006l10.4,4.384c1.863.782,3.694,1.556,5.552,2.339l2.775,1.17a20.865,20.865,0,0,0,2.864,1.114l3.987-9.839a3.026,3.026,0,0,1,.68-.714c.265.271.474.958,1.516,1.047,2.279.2,2.036-1.632,1.23-1.474-.433.085-.678.712-1.146.779a.968.968,0,0,1-.585-.048,1.52,1.52,0,0,1-.534-.74,2.49,2.49,0,0,1-.036-1.179c.021-.181.042-.393.081-.568a1.6,1.6,0,0,1,.592-.681A1.048,1.048,0,0,1,134.8,77c.808.11.691.582.975.951.242.315.721.338.666-.162a1.245,1.245,0,0,0-.785-1.147c-.458-.239-.818-.08-1.082-.19a3.351,3.351,0,0,1,.388-1.624,5.306,5.306,0,0,0,.5-1.519,21.571,21.571,0,0,0,.129-2.552,5.563,5.563,0,0,0-.174-1.151,17.2,17.2,0,0,1-.472-2.217c.875-.215,2.105-1.088,1.2-2.026a6.63,6.63,0,0,0-.5-.5,9.593,9.593,0,0,0-1.812-1.078,8.23,8.23,0,0,1-1.3-.655,17.319,17.319,0,0,0-2.371-1.483,2.585,2.585,0,0,0-1.606-.237c-.564.1-1.089.23-1.022.908a5.958,5.958,0,0,0,.53,1.394,9.994,9.994,0,0,0,1.132,1.789c.629.915,1.173,2.585,2.238,2.6a8.193,8.193,0,0,0,1.685-.235c.519-.111,1.06-.295,1.556-.382a22.881,22.881,0,0,1,.554,4.789,7.909,7.909,0,0,1-.563,2.11,7.89,7.89,0,0,0-.575,2.083,2.649,2.649,0,0,0-.745.481,2.532,2.532,0,0,0-.522,1.868c.06.686.133.365-.285.773-.271.265-.414.466-.791.457-.4-.01-.785,0-1.181-.039-.354-.033-.793.01-.841-.37a5.652,5.652,0,0,1,.027-1.181c.054-.083-.014-.042.11-.089a6.512,6.512,0,0,1,1.2-.041c.215,0,.5.01.708-.011s.355-.114.317-.367c-.235-.191-1.071-.116-1.462-.123-.761-.013-1.162.125-1.064-.436.536-.079,1.5-.051,2.093-.068.258-.007.76-.038.881-.22a.37.37,0,0,0-.043-.42A12.661,12.661,0,0,0,129.9,76.6c-.337,0-1.26-.137-1.3.309-.028.283.069.258.166.355.069.145.017,2.57-.006,2.884a1.425,1.425,0,0,1-.876.192,2.711,2.711,0,0,1-1.33-.735c-.217-.32.082-.549.216-.675a3.649,3.649,0,0,1,.539-.487c.341-.224,1.075-.567.934-1.085-.1-.362-1-.622-1.352-.7-2.285-.5-3.124.228-2.631.4.111.038.35-.008.4.087s.019,1.787.02,2.032c0,.434.007.534-.247.778l-.476-.924a7.944,7.944,0,0,1-.4-1,4.531,4.531,0,0,1-.266-1.135.39.39,0,0,0-.317-.366c-.755-.125-.608.331-.7.7a9.864,9.864,0,0,1-1.042,2.406c-.313.441-.631.362-.925.441-.047.278.158.263.342.372.049.3-.217.548-.033.714a.477.477,0,0,0,.622-.091c.608-.645.983-.524,2.033-.446.353.026.378.071.525.309.1.156.216.442.475.314.142-.07.379-.253.4-.41a1.66,1.66,0,0,1,.206.422l.024.039c.235.153.435-.531.5-.672.126-.291.215-.612.6-.625.317-.01.53.313.748.476a1.708,1.708,0,0,0,.845.333c.947.187,1.153-.157,1.574-.177A25.492,25.492,0,0,0,132,80.517c-.033.28-1.727,4.444-1.863,4.772-.324.783-.642,1.579-.955,2.369-.155.392-.317.787-.47,1.176a12.3,12.3,0,0,0-.463,1.193,12.606,12.606,0,0,1-1.363-.581c-1.349-.568-2.665-1.2-4.017-1.762-1.787-.749-3.558-1.558-5.335-2.338S113.961,83.8,112.181,83c-.879-.394-1.781-.8-2.679-1.173s-1.778-.8-2.655-1.166a9.988,9.988,0,0,1,.925-.683,13.524,13.524,0,0,0,1.123-1.269,1.142,1.142,0,0,0-.206-1.661c-.768-.6-3.383-.973-3.842-.43a.4.4,0,0,0,.086.551c.146.083.484.009.679.04a14.033,14.033,0,0,1,.008,2.752c-.028.5.014.394-.573.864A1.353,1.353,0,0,0,104.419,81.626Z" transform="translate(-104.402 -52.019)" fill="#fff" fill-rule="evenodd"/>
</svg>
