<svg xmlns="http://www.w3.org/2000/svg" width="183" height="38" viewBox="0 0 183 38">
  <g id="Grupo_12" data-name="Grupo 12" transform="translate(-220 -727)">
    <g id="Rectángulo_4" data-name="Rectángulo 4" transform="translate(220 727)" fill="#ededed" stroke="#696969" stroke-width="0.2">
      <rect width="183" height="38" rx="4" stroke="none"/>
      <rect x="0.1" y="0.1" width="182.8" height="37.8" rx="3.9" fill="none"/>
    </g>
    <g id="Grupo_9" data-name="Grupo 9" transform="translate(15.2)">
      <text id="Datos_biográficos" data-name="Datos biográficos" transform="translate(245 752)" fill="#696969" font-size="15" font-family="HelveticaNeue-Medium, Helvetica Neue" font-weight="500"><tspan x="0" y="0">Datos biográficos</tspan></text>
      <g id="Icon_feather-file-text" data-name="Icon feather-file-text" transform="translate(217.8 736)">
        <path id="Trazado_10" data-name="Trazado 10" d="M13.5,3h-6A1.5,1.5,0,0,0,6,4.5v12A1.5,1.5,0,0,0,7.5,18h9A1.5,1.5,0,0,0,18,16.5v-9Z" transform="translate(0 0)" fill="none" stroke="#696969" stroke-linecap="round" stroke-linejoin="round" stroke-width="1.5"/>
        <path id="Trazado_11" data-name="Trazado 11" d="M21,3V7.5h4.5" transform="translate(-7.5 0)" fill="none" stroke="#696969" stroke-linecap="round" stroke-linejoin="round" stroke-width="1.5"/>
        <path id="Trazado_12" data-name="Trazado 12" d="M18,19.5H12" transform="translate(-3 -8.25)" fill="none" stroke="#696969" stroke-linecap="round" stroke-linejoin="round" stroke-width="1.5"/>
        <path id="Trazado_13" data-name="Trazado 13" d="M18,25.5H12" transform="translate(-3 -11.25)" fill="none" stroke="#696969" stroke-linecap="round" stroke-linejoin="round" stroke-width="1.5"/>
        <path id="Trazado_14" data-name="Trazado 14" d="M13.5,13.5H12" transform="translate(-3 -5.25)" fill="none" stroke="#696969" stroke-linecap="round" stroke-linejoin="round" stroke-width="1.5"/>
      </g>
    </g>
  </g>
</svg>
