<svg xmlns="http://www.w3.org/2000/svg" width="184" height="38" viewBox="0 0 184 38">
  <g id="Grupo_21" data-name="Grupo 21" transform="translate(-1074 -198)">
    <g id="Rectángulo_4" data-name="Rectángulo 4" transform="translate(1074 198)" fill="#ededed" stroke="#696969" stroke-width="0.2">
      <rect width="184" height="38" rx="4" stroke="none"/>
      <rect x="0.1" y="0.1" width="183.8" height="37.8" rx="3.9" fill="none"/>
    </g>
    <g id="Grupo_9" data-name="Grupo 9" transform="translate(867.2 -529)">
      <path id="Trazado_18" data-name="Trazado 18" d="M1.14-10.71H5.58a5,5,0,0,1,2.13.42A3.958,3.958,0,0,1,9.18-9.142a4.9,4.9,0,0,1,.847,1.7A7.585,7.585,0,0,1,10.3-5.355a7.585,7.585,0,0,1-.277,2.085,4.9,4.9,0,0,1-.847,1.7A3.958,3.958,0,0,1,7.71-.42,5,5,0,0,1,5.58,0H1.14ZM3.015-1.53H4.86a4.679,4.679,0,0,0,1.793-.293,2.623,2.623,0,0,0,1.095-.81,2.924,2.924,0,0,0,.54-1.215A7.531,7.531,0,0,0,8.43-5.355a7.531,7.531,0,0,0-.142-1.508,2.924,2.924,0,0,0-.54-1.215,2.623,2.623,0,0,0-1.095-.81A4.679,4.679,0,0,0,4.86-9.18H3.015Zm15.21-.2a.907.907,0,0,0,.082.45.348.348,0,0,0,.323.135h.18a1.121,1.121,0,0,0,.24-.03V.015q-.09.03-.232.067T18.525.15q-.15.03-.3.045T17.97.21A1.649,1.649,0,0,1,17.1,0a1.046,1.046,0,0,1-.45-.735,3.024,3.024,0,0,1-1.252.72A4.932,4.932,0,0,1,13.965.21,3.513,3.513,0,0,1,12.96.067a2.637,2.637,0,0,1-.847-.42,2.013,2.013,0,0,1-.585-.705,2.172,2.172,0,0,1-.218-1,2.3,2.3,0,0,1,.263-1.17,1.945,1.945,0,0,1,.69-.7,3.116,3.116,0,0,1,.96-.368q.533-.112,1.073-.173A8.775,8.775,0,0,1,15.18-4.6a4.153,4.153,0,0,0,.743-.128A1.137,1.137,0,0,0,16.432-5a.764.764,0,0,0,.188-.562.876.876,0,0,0-.157-.54,1.057,1.057,0,0,0-.39-.322,1.685,1.685,0,0,0-.517-.15,4.147,4.147,0,0,0-.54-.038,2.148,2.148,0,0,0-1.185.3,1.17,1.17,0,0,0-.525.93H11.6a2.574,2.574,0,0,1,.36-1.245,2.487,2.487,0,0,1,.8-.8,3.283,3.283,0,0,1,1.1-.42,6.564,6.564,0,0,1,1.26-.12,5.308,5.308,0,0,1,1.125.12,3.2,3.2,0,0,1,1,.39,2.16,2.16,0,0,1,.712.7,1.914,1.914,0,0,1,.27,1.043Zm-1.71-2.16a2.076,2.076,0,0,1-.96.308q-.57.052-1.14.157a3.655,3.655,0,0,0-.525.128,1.581,1.581,0,0,0-.45.225.988.988,0,0,0-.307.375,1.282,1.282,0,0,0-.112.562.718.718,0,0,0,.165.48,1.2,1.2,0,0,0,.4.307,1.841,1.841,0,0,0,.51.158,3.166,3.166,0,0,0,.5.045,2.785,2.785,0,0,0,.615-.075,2.045,2.045,0,0,0,.623-.255,1.639,1.639,0,0,0,.487-.458,1.157,1.157,0,0,0,.195-.682Zm2.775-3.87h1.29V-10.08h1.71v2.325h1.545V-6.48H22.29v4.14a4.13,4.13,0,0,0,.022.465.8.8,0,0,0,.1.33.5.5,0,0,0,.248.2,1.218,1.218,0,0,0,.45.068q.18,0,.36-.008a1.788,1.788,0,0,0,.36-.053v1.32l-.555.06a5.024,5.024,0,0,1-.555.03,3.785,3.785,0,0,1-1.087-.127,1.452,1.452,0,0,1-.645-.375,1.294,1.294,0,0,1-.315-.622,4.684,4.684,0,0,1-.1-.855V-6.48H19.29ZM28.62.21A4.223,4.223,0,0,1,26.963-.1a3.535,3.535,0,0,1-1.23-.847,3.625,3.625,0,0,1-.765-1.29,4.966,4.966,0,0,1-.262-1.65,4.918,4.918,0,0,1,.262-1.635,3.625,3.625,0,0,1,.765-1.29,3.535,3.535,0,0,1,1.23-.848,4.223,4.223,0,0,1,1.657-.307,4.223,4.223,0,0,1,1.657.307,3.535,3.535,0,0,1,1.23.848,3.625,3.625,0,0,1,.765,1.29,4.918,4.918,0,0,1,.263,1.635,4.965,4.965,0,0,1-.263,1.65,3.625,3.625,0,0,1-.765,1.29,3.535,3.535,0,0,1-1.23.847A4.223,4.223,0,0,1,28.62.21Zm0-1.35a1.962,1.962,0,0,0,.99-.24,2.086,2.086,0,0,0,.69-.63,2.75,2.75,0,0,0,.4-.877,3.926,3.926,0,0,0,.128-1,3.955,3.955,0,0,0-.128-.99,2.654,2.654,0,0,0-.4-.878,2.119,2.119,0,0,0-.69-.622,1.962,1.962,0,0,0-.99-.24,1.962,1.962,0,0,0-.99.24,2.119,2.119,0,0,0-.69.622,2.654,2.654,0,0,0-.4.878,3.955,3.955,0,0,0-.128.99,3.926,3.926,0,0,0,.128,1,2.749,2.749,0,0,0,.4.877,2.086,2.086,0,0,0,.69.63A1.962,1.962,0,0,0,28.62-1.14Zm6.63-1.35a1.288,1.288,0,0,0,.57,1.05,2.244,2.244,0,0,0,1.185.3,4.576,4.576,0,0,0,.548-.038,2.383,2.383,0,0,0,.577-.142,1.086,1.086,0,0,0,.443-.308.738.738,0,0,0,.158-.532.755.755,0,0,0-.24-.54,1.663,1.663,0,0,0-.577-.337,5.6,5.6,0,0,0-.8-.217q-.45-.09-.915-.2a8.588,8.588,0,0,1-.922-.255,2.977,2.977,0,0,1-.8-.4,1.871,1.871,0,0,1-.562-.653,2.085,2.085,0,0,1-.21-.983A1.764,1.764,0,0,1,34.013-6.8a2.357,2.357,0,0,1,.78-.69,3.4,3.4,0,0,1,1.05-.367,6.168,6.168,0,0,1,1.1-.105,5.045,5.045,0,0,1,1.148.128,3.118,3.118,0,0,1,.99.412,2.422,2.422,0,0,1,.735.743,2.57,2.57,0,0,1,.368,1.1H38.4a1.064,1.064,0,0,0-.562-.825,2.335,2.335,0,0,0-1.013-.21,3.623,3.623,0,0,0-.427.03,1.977,1.977,0,0,0-.465.113.978.978,0,0,0-.368.24.573.573,0,0,0-.15.412.653.653,0,0,0,.217.51,1.721,1.721,0,0,0,.57.322,5.6,5.6,0,0,0,.8.218q.45.09.93.195t.915.255a2.95,2.95,0,0,1,.8.4,1.968,1.968,0,0,1,.57.645,1.947,1.947,0,0,1,.218.96,2.086,2.086,0,0,1-.315,1.17,2.491,2.491,0,0,1-.817.78A3.718,3.718,0,0,1,38.19.075,5.654,5.654,0,0,1,36.975.21,5.288,5.288,0,0,1,35.618.045a3.164,3.164,0,0,1-1.08-.5,2.428,2.428,0,0,1-.72-.84A2.672,2.672,0,0,1,33.54-2.49Zm10.71-8.22h1.71v3.96h.03a2.352,2.352,0,0,1,.435-.51,2.722,2.722,0,0,1,.563-.383,2.943,2.943,0,0,1,.645-.24,2.8,2.8,0,0,1,.667-.082,3.7,3.7,0,0,1,1.6.322,3.15,3.15,0,0,1,1.132.885,3.844,3.844,0,0,1,.675,1.313A5.559,5.559,0,0,1,53.64-3.84a5.678,5.678,0,0,1-.2,1.515,3.941,3.941,0,0,1-.615,1.3,3.074,3.074,0,0,1-1.042.9A3.1,3.1,0,0,1,50.295.21a6.009,6.009,0,0,1-.787-.053,2.972,2.972,0,0,1-.757-.2,2.6,2.6,0,0,1-.653-.39,1.9,1.9,0,0,1-.487-.63h-.03V0H45.96Zm5.97,6.84a3.859,3.859,0,0,0-.135-1.02,2.771,2.771,0,0,0-.4-.878,2.091,2.091,0,0,0-.675-.615,1.834,1.834,0,0,0-.93-.233,1.886,1.886,0,0,0-1.627.75,3.31,3.31,0,0,0-.548,2,3.973,3.973,0,0,0,.142,1.087,2.448,2.448,0,0,0,.428.862,2.135,2.135,0,0,0,.682.57,1.946,1.946,0,0,0,.923.21,1.911,1.911,0,0,0,.99-.24A2.093,2.093,0,0,0,51.442-2a2.524,2.524,0,0,0,.375-.87A4.422,4.422,0,0,0,51.93-3.87Zm3.195-6.84h1.71v1.62h-1.71Zm0,2.955h1.71V0h-1.71ZM62.25.21A4.223,4.223,0,0,1,60.592-.1a3.535,3.535,0,0,1-1.23-.847,3.625,3.625,0,0,1-.765-1.29,4.966,4.966,0,0,1-.263-1.65A4.918,4.918,0,0,1,58.6-5.52a3.625,3.625,0,0,1,.765-1.29,3.535,3.535,0,0,1,1.23-.848,4.223,4.223,0,0,1,1.658-.307,4.223,4.223,0,0,1,1.657.307,3.535,3.535,0,0,1,1.23.848A3.625,3.625,0,0,1,65.9-5.52a4.918,4.918,0,0,1,.263,1.635,4.965,4.965,0,0,1-.263,1.65,3.625,3.625,0,0,1-.765,1.29,3.535,3.535,0,0,1-1.23.847A4.223,4.223,0,0,1,62.25.21Zm0-1.35a1.962,1.962,0,0,0,.99-.24,2.086,2.086,0,0,0,.69-.63,2.749,2.749,0,0,0,.4-.877,3.926,3.926,0,0,0,.128-1,3.955,3.955,0,0,0-.128-.99,2.654,2.654,0,0,0-.4-.878,2.119,2.119,0,0,0-.69-.622,1.962,1.962,0,0,0-.99-.24,1.962,1.962,0,0,0-.99.24,2.119,2.119,0,0,0-.69.622,2.654,2.654,0,0,0-.4.878,3.955,3.955,0,0,0-.127.99,3.926,3.926,0,0,0,.127,1,2.75,2.75,0,0,0,.4.877,2.086,2.086,0,0,0,.69.63A1.962,1.962,0,0,0,62.25-1.14Zm12.51.735a3.3,3.3,0,0,1-.982,2.617,4.157,4.157,0,0,1-2.827.863,5.919,5.919,0,0,1-1.178-.12,3.5,3.5,0,0,1-1.08-.4,2.6,2.6,0,0,1-.818-.75,2.28,2.28,0,0,1-.39-1.14h1.71a1.369,1.369,0,0,0,.255.585,1.314,1.314,0,0,0,.427.352,1.626,1.626,0,0,0,.548.165,5.081,5.081,0,0,0,.63.037,1.994,1.994,0,0,0,1.515-.51,2.066,2.066,0,0,0,.48-1.47V-1.365h-.03a2.6,2.6,0,0,1-.982,1A2.637,2.637,0,0,1,70.695,0a3.544,3.544,0,0,1-1.582-.323,3.011,3.011,0,0,1-1.08-.885,3.677,3.677,0,0,1-.622-1.3,6.123,6.123,0,0,1-.195-1.575,4.576,4.576,0,0,1,.24-1.485,3.786,3.786,0,0,1,.69-1.238,3.3,3.3,0,0,1,1.1-.847,3.356,3.356,0,0,1,1.478-.315,2.976,2.976,0,0,1,1.35.307,2.087,2.087,0,0,1,.945.968h.03V-7.755h1.71ZM70.965-1.35a1.886,1.886,0,0,0,.967-.232,1.9,1.9,0,0,0,.645-.615,2.707,2.707,0,0,0,.36-.87,4.356,4.356,0,0,0,.113-.983,3.826,3.826,0,0,0-.12-.96,2.58,2.58,0,0,0-.368-.825,1.776,1.776,0,0,0-.645-.57,2.014,2.014,0,0,0-.952-.21,1.8,1.8,0,0,0-.96.24,1.922,1.922,0,0,0-.63.622,2.686,2.686,0,0,0-.345.87,4.584,4.584,0,0,0-.1.967,3.68,3.68,0,0,0,.12.938,2.589,2.589,0,0,0,.368.818,1.961,1.961,0,0,0,.63.585A1.789,1.789,0,0,0,70.965-1.35Zm5.52-6.405h1.6v1.5h.03a1.731,1.731,0,0,1,.292-.615,2.852,2.852,0,0,1,.525-.548,2.653,2.653,0,0,1,.682-.4,2.043,2.043,0,0,1,.765-.15,3.71,3.71,0,0,1,.412.015l.232.03v1.65q-.18-.03-.368-.052a3.083,3.083,0,0,0-.368-.023,1.965,1.965,0,0,0-.817.173,1.878,1.878,0,0,0-.668.51,2.5,2.5,0,0,0-.45.832,3.6,3.6,0,0,0-.165,1.14V0h-1.71ZM88.26-1.725a.907.907,0,0,0,.083.45.348.348,0,0,0,.323.135h.18a1.121,1.121,0,0,0,.24-.03V.015q-.09.03-.232.067T88.56.15q-.15.03-.3.045T88,.21a1.649,1.649,0,0,1-.87-.21,1.046,1.046,0,0,1-.45-.735,3.024,3.024,0,0,1-1.253.72A4.932,4.932,0,0,1,84,.21,3.513,3.513,0,0,1,82.995.067a2.637,2.637,0,0,1-.847-.42,2.013,2.013,0,0,1-.585-.705,2.172,2.172,0,0,1-.217-1,2.3,2.3,0,0,1,.262-1.17,1.945,1.945,0,0,1,.69-.7,3.116,3.116,0,0,1,.96-.368q.533-.112,1.073-.173a8.775,8.775,0,0,1,.885-.127,4.153,4.153,0,0,0,.743-.128A1.137,1.137,0,0,0,86.467-5a.764.764,0,0,0,.188-.562.876.876,0,0,0-.158-.54,1.057,1.057,0,0,0-.39-.322,1.685,1.685,0,0,0-.518-.15,4.147,4.147,0,0,0-.54-.038,2.148,2.148,0,0,0-1.185.3,1.17,1.17,0,0,0-.525.93H81.63a2.574,2.574,0,0,1,.36-1.245,2.487,2.487,0,0,1,.8-.8,3.283,3.283,0,0,1,1.1-.42,6.564,6.564,0,0,1,1.26-.12,5.308,5.308,0,0,1,1.125.12,3.2,3.2,0,0,1,1,.39,2.16,2.16,0,0,1,.713.7,1.914,1.914,0,0,1,.27,1.043Zm-1.71-2.16a2.076,2.076,0,0,1-.96.308q-.57.052-1.14.157a3.655,3.655,0,0,0-.525.128,1.581,1.581,0,0,0-.45.225.988.988,0,0,0-.308.375,1.282,1.282,0,0,0-.112.562.718.718,0,0,0,.165.48,1.2,1.2,0,0,0,.4.307,1.841,1.841,0,0,0,.51.158,3.166,3.166,0,0,0,.5.045,2.785,2.785,0,0,0,.615-.075,2.045,2.045,0,0,0,.623-.255,1.639,1.639,0,0,0,.487-.458,1.157,1.157,0,0,0,.195-.682Zm-.975-7.095H87.6L85.47-8.835H84.225Zm9.3.27h1.71v1.62h-1.71ZM89.34-7.755h1.275V-8.4a3.308,3.308,0,0,1,.18-1.193,1.694,1.694,0,0,1,.48-.7,1.581,1.581,0,0,1,.683-.33,3.8,3.8,0,0,1,.8-.082,4.9,4.9,0,0,1,1.2.1V-9.27a2.448,2.448,0,0,0-.353-.068,3.772,3.772,0,0,0-.442-.023,1.043,1.043,0,0,0-.592.165.723.723,0,0,0-.247.645v.8H93.78V-6.48H92.325V0h-1.71V-6.48H89.34Zm5.535,0h1.71V0h-1.71ZM103.68-5.16a1.6,1.6,0,0,0-.577-1.087,1.884,1.884,0,0,0-1.193-.368,2.459,2.459,0,0,0-.7.113,1.673,1.673,0,0,0-.69.42,2.355,2.355,0,0,0-.525.855,4.07,4.07,0,0,0-.21,1.433,4.194,4.194,0,0,0,.113.96,2.624,2.624,0,0,0,.36.855,1.95,1.95,0,0,0,.638.608,1.814,1.814,0,0,0,.945.232,1.721,1.721,0,0,0,1.237-.465,2.161,2.161,0,0,0,.608-1.305h1.71a3.756,3.756,0,0,1-1.147,2.318,3.5,3.5,0,0,1-2.408.8A3.965,3.965,0,0,1,100.222-.1a3.418,3.418,0,0,1-1.177-.84A3.567,3.567,0,0,1,98.317-2.2a4.952,4.952,0,0,1-.247-1.59,5.433,5.433,0,0,1,.24-1.635,3.745,3.745,0,0,1,.72-1.328,3.369,3.369,0,0,1,1.192-.885,4.025,4.025,0,0,1,1.673-.322,4.674,4.674,0,0,1,1.283.172,3.378,3.378,0,0,1,1.08.518,2.755,2.755,0,0,1,.772.87,2.979,2.979,0,0,1,.36,1.245ZM110.34.21A4.223,4.223,0,0,1,108.683-.1a3.535,3.535,0,0,1-1.23-.847,3.625,3.625,0,0,1-.765-1.29,4.966,4.966,0,0,1-.262-1.65,4.918,4.918,0,0,1,.262-1.635,3.625,3.625,0,0,1,.765-1.29,3.535,3.535,0,0,1,1.23-.848,4.223,4.223,0,0,1,1.658-.307A4.223,4.223,0,0,1,112-7.658a3.535,3.535,0,0,1,1.23.848,3.625,3.625,0,0,1,.765,1.29,4.918,4.918,0,0,1,.263,1.635,4.965,4.965,0,0,1-.263,1.65,3.625,3.625,0,0,1-.765,1.29A3.535,3.535,0,0,1,112-.1,4.223,4.223,0,0,1,110.34.21Zm0-1.35a1.962,1.962,0,0,0,.99-.24,2.086,2.086,0,0,0,.69-.63,2.749,2.749,0,0,0,.4-.877,3.926,3.926,0,0,0,.127-1,3.955,3.955,0,0,0-.127-.99,2.654,2.654,0,0,0-.4-.878,2.119,2.119,0,0,0-.69-.622,1.962,1.962,0,0,0-.99-.24,1.962,1.962,0,0,0-.99.24,2.119,2.119,0,0,0-.69.622,2.654,2.654,0,0,0-.4.878,3.955,3.955,0,0,0-.128.99,3.926,3.926,0,0,0,.128,1,2.749,2.749,0,0,0,.4.877,2.086,2.086,0,0,0,.69.63A1.962,1.962,0,0,0,110.34-1.14Zm6.63-1.35a1.288,1.288,0,0,0,.57,1.05,2.244,2.244,0,0,0,1.185.3,4.577,4.577,0,0,0,.548-.038,2.383,2.383,0,0,0,.577-.142,1.086,1.086,0,0,0,.442-.308.738.738,0,0,0,.158-.532.755.755,0,0,0-.24-.54,1.663,1.663,0,0,0-.577-.337,5.6,5.6,0,0,0-.8-.217q-.45-.09-.915-.2a8.588,8.588,0,0,1-.923-.255,2.977,2.977,0,0,1-.795-.4,1.871,1.871,0,0,1-.562-.653,2.085,2.085,0,0,1-.21-.983,1.764,1.764,0,0,1,.308-1.058,2.357,2.357,0,0,1,.78-.69,3.4,3.4,0,0,1,1.05-.367,6.168,6.168,0,0,1,1.1-.105,5.045,5.045,0,0,1,1.147.128,3.118,3.118,0,0,1,.99.412,2.423,2.423,0,0,1,.735.743,2.57,2.57,0,0,1,.368,1.1H120.12a1.064,1.064,0,0,0-.562-.825,2.335,2.335,0,0,0-1.012-.21,3.623,3.623,0,0,0-.427.03,1.977,1.977,0,0,0-.465.113.978.978,0,0,0-.368.24.573.573,0,0,0-.15.412.653.653,0,0,0,.217.51,1.721,1.721,0,0,0,.57.322,5.6,5.6,0,0,0,.8.218q.45.09.93.195.465.105.915.255a2.951,2.951,0,0,1,.8.4,1.968,1.968,0,0,1,.57.645,1.947,1.947,0,0,1,.217.96,2.086,2.086,0,0,1-.315,1.17,2.491,2.491,0,0,1-.818.78,3.718,3.718,0,0,1-1.118.435,5.654,5.654,0,0,1-1.215.135,5.288,5.288,0,0,1-1.357-.165,3.164,3.164,0,0,1-1.08-.5,2.428,2.428,0,0,1-.72-.84,2.672,2.672,0,0,1-.277-1.193Z" transform="translate(245 752)" fill="#696969"/>
      <g id="Icon_feather-file-text" data-name="Icon feather-file-text" transform="translate(217.8 736)">
        <path id="Trazado_10" data-name="Trazado 10" d="M13.5,3h-6A1.5,1.5,0,0,0,6,4.5v12A1.5,1.5,0,0,0,7.5,18h9A1.5,1.5,0,0,0,18,16.5v-9Z" transform="translate(0 0)" fill="none" stroke="#696969" stroke-linecap="round" stroke-linejoin="round" stroke-width="1.5"/>
        <path id="Trazado_11" data-name="Trazado 11" d="M21,3V7.5h4.5" transform="translate(-7.5 0)" fill="none" stroke="#696969" stroke-linecap="round" stroke-linejoin="round" stroke-width="1.5"/>
        <path id="Trazado_12" data-name="Trazado 12" d="M18,19.5H12" transform="translate(-3 -8.25)" fill="none" stroke="#696969" stroke-linecap="round" stroke-linejoin="round" stroke-width="1.5"/>
        <path id="Trazado_13" data-name="Trazado 13" d="M18,25.5H12" transform="translate(-3 -11.25)" fill="none" stroke="#696969" stroke-linecap="round" stroke-linejoin="round" stroke-width="1.5"/>
        <path id="Trazado_14" data-name="Trazado 14" d="M13.5,13.5H12" transform="translate(-3 -5.25)" fill="none" stroke="#696969" stroke-linecap="round" stroke-linejoin="round" stroke-width="1.5"/>
      </g>
    </g>
  </g>
</svg>
